<svg width="100" height="100" viewBox="0 0 100 100" fill="none" xmlns="http://www.w3.org/2000/svg">
<g clip-path="url(#clip0_96_38)">
<rect width="100" height="100" fill="white"/>
<rect width="100" height="100" fill="#1A2B34"/>
<path d="M61.9042 33.8408H64.2854C64.6009 33.8408 64.9035 33.9703 65.1266 34.2009C65.3497 34.4314 65.475 34.7441 65.475 35.0701C65.475 35.3961 65.3497 35.7088 65.1266 35.9393C64.9035 36.1699 64.6009 36.2994 64.2854 36.2994H61.9042C61.5887 36.2994 61.2861 36.1699 61.063 35.9393C60.8399 35.7088 60.7146 35.3961 60.7146 35.0701C60.7146 34.7441 60.8399 34.4314 61.063 34.2009C61.2861 33.9703 61.5887 33.8408 61.9042 33.8408Z" fill="#56B3B4"/>
<path d="M26.1896 73.2085H38.0937C38.4092 73.2085 38.7118 73.338 38.9349 73.5685C39.158 73.7991 39.2833 74.1118 39.2833 74.4378C39.2833 74.5992 39.2526 74.7591 39.1928 74.9082C39.133 75.0574 39.0454 75.1929 38.9349 75.307C38.8244 75.4212 38.6933 75.5117 38.549 75.5735C38.4047 75.6353 38.25 75.6671 38.0937 75.6671H26.1896C25.8744 75.6671 25.5722 75.5379 25.3492 75.3078C25.1261 75.0777 25.0006 74.7656 25 74.4399C24.9997 74.2783 25.0303 74.1182 25.09 73.9688C25.1496 73.8195 25.2372 73.6837 25.3477 73.5693C25.4582 73.4549 25.5894 73.3642 25.7339 73.3023C25.8783 73.2404 26.0332 73.2085 26.1896 73.2085Z" fill="#EA5E5E"/>
<path d="M54.7625 53.5244H61.9062C62.2217 53.5244 62.5243 53.6539 62.7474 53.8845C62.9705 54.115 63.0958 54.4277 63.0958 54.7537C63.0958 55.0797 62.9705 55.3924 62.7474 55.6229C62.5243 55.8535 62.2217 55.983 61.9062 55.983H54.7625C54.447 55.983 54.1444 55.8535 53.9213 55.6229C53.6982 55.3924 53.5729 55.0797 53.5729 54.7537C53.5729 54.4277 53.6982 54.115 53.9213 53.8845C54.1444 53.6539 54.447 53.5244 54.7625 53.5244Z" fill="#BF85BF"/>
<path d="M40.4771 53.5244H50C50.3155 53.5244 50.618 53.6539 50.8411 53.8845C51.0642 54.115 51.1896 54.4277 51.1896 54.7537C51.1896 55.0797 51.0642 55.3924 50.8411 55.6229C50.618 55.8535 50.3155 55.983 50 55.983H40.4771C40.1616 55.983 39.859 55.8535 39.6359 55.6229C39.4128 55.3924 39.2875 55.0797 39.2875 54.7537C39.2875 54.4277 39.4128 54.115 39.6359 53.8845C39.859 53.6539 40.1616 53.5244 40.4771 53.5244Z" fill="#EA5E5E"/>
<path d="M26.1896 53.5244H35.7146C36.0301 53.5244 36.3327 53.6539 36.5557 53.8845C36.7788 54.115 36.9042 54.4277 36.9042 54.7537C36.9042 55.0797 36.7788 55.3924 36.5557 55.6229C36.3327 55.8535 36.0301 55.983 35.7146 55.983H26.1896C25.8744 55.983 25.5722 55.8538 25.3492 55.6237C25.1261 55.3936 25.0006 55.0815 25 54.7559C24.9997 54.5942 25.0303 54.4342 25.09 54.2848C25.1496 54.1354 25.2372 53.9996 25.3477 53.8852C25.4582 53.7708 25.5894 53.6801 25.7339 53.6182C25.8783 53.5563 26.0332 53.5244 26.1896 53.5244Z" fill="#56B3B4"/>
<path d="M26.1896 63.3674H38.0937C38.4092 63.3674 38.7118 63.4969 38.9349 63.7275C39.158 63.958 39.2833 64.2707 39.2833 64.5967C39.2833 64.9228 39.158 65.2354 38.9349 65.466C38.7118 65.6965 38.4092 65.826 38.0937 65.826H26.1896C25.8741 65.826 25.5715 65.6965 25.3484 65.466C25.1253 65.2354 25 64.9228 25 64.5967C25 64.2707 25.1253 63.958 25.3484 63.7275C25.5715 63.4969 25.8741 63.3674 26.1896 63.3674Z" fill="#BF85BF"/>
<path d="M26.1896 43.6836H38.0937C38.4092 43.6836 38.7118 43.8131 38.9349 44.0436C39.158 44.2742 39.2833 44.5869 39.2833 44.9129C39.2833 45.2389 39.158 45.5516 38.9349 45.7821C38.7118 46.0127 38.4092 46.1422 38.0937 46.1422H26.1896C25.8741 46.1422 25.5715 46.0127 25.3484 45.7821C25.1253 45.5516 25 45.2389 25 44.9129C25 44.5869 25.1253 44.2742 25.3484 44.0436C25.5715 43.8131 25.8741 43.6836 26.1896 43.6836Z" fill="#BF85BF"/>
<path d="M38.0958 28.9219H61.9042C62.2197 28.9219 62.5222 29.0514 62.7453 29.2819C62.9684 29.5125 63.0937 29.8251 63.0937 30.1512C63.0937 30.4772 62.9684 30.7899 62.7453 31.0204C62.5222 31.2509 62.2197 31.3805 61.9042 31.3805H38.0958C37.7803 31.3805 37.4778 31.2509 37.2547 31.0204C37.0316 30.7899 36.9062 30.4772 36.9062 30.1512C36.9062 29.8251 37.0316 29.5125 37.2547 29.2819C37.4778 29.0514 37.7803 28.9219 38.0958 28.9219Z" fill="#F7BA3E"/>
<path d="M26.1896 28.9219H33.3333C33.6488 28.9219 33.9514 29.0514 34.1745 29.2819C34.3976 29.5125 34.5229 29.8251 34.5229 30.1512C34.5232 30.3128 34.4926 30.4729 34.433 30.6223C34.3733 30.7716 34.2857 30.9074 34.1752 31.0218C34.0647 31.1362 33.9335 31.2269 33.789 31.2888C33.6446 31.3507 33.4897 31.3826 33.3333 31.3826H26.1896C26.0332 31.3826 25.8783 31.3507 25.7339 31.2888C25.5894 31.2269 25.4582 31.1362 25.3477 31.0218C25.2372 30.9074 25.1496 30.7716 25.09 30.6223C25.0303 30.4729 24.9997 30.3128 25 30.1512C25 29.8251 25.1253 29.5125 25.3484 29.2819C25.5715 29.0514 25.8741 28.9219 26.1896 28.9219Z" fill="#EA5E5E"/>
<path d="M35.7146 68.2866H38.0958C38.4113 68.2866 38.7139 68.4161 38.937 68.6467C39.1601 68.8772 39.2854 69.1899 39.2854 69.5159C39.2854 69.8419 39.1601 70.1546 38.937 70.3852C38.7139 70.6157 38.4113 70.7452 38.0958 70.7452H35.7146C35.3991 70.7452 35.0965 70.6157 34.8734 70.3852C34.6503 70.1546 34.525 69.8419 34.525 69.5159C34.525 69.1899 34.6503 68.8772 34.8734 68.6467C35.0965 68.4161 35.3991 68.2866 35.7146 68.2866Z" fill="#F7BA3E"/>
<path d="M35.7146 38.7622H38.0958C38.4113 38.7622 38.7139 38.8917 38.937 39.1223C39.1601 39.3528 39.2854 39.6655 39.2854 39.9915C39.2854 40.3175 39.1601 40.6302 38.937 40.8607C38.7139 41.0913 38.4113 41.2208 38.0958 41.2208H35.7146C35.3991 41.2208 35.0965 41.0913 34.8734 40.8607C34.6503 40.6302 34.525 40.3175 34.525 39.9915C34.525 39.6655 34.6503 39.3528 34.8734 39.1223C35.0965 38.8917 35.3991 38.7622 35.7146 38.7622Z" fill="#56B3B4"/>
<path d="M26.1896 68.2866H30.9521C31.2676 68.2866 31.5702 68.4161 31.7932 68.6467C32.0163 68.8772 32.1417 69.1899 32.1417 69.5159C32.1417 69.8419 32.0163 70.1546 31.7932 70.3852C31.5702 70.6157 31.2676 70.7452 30.9521 70.7452H26.1896C25.8744 70.7452 25.5722 70.616 25.3492 70.3859C25.1261 70.1558 25.0006 69.8437 25 69.5181C24.9997 69.3565 25.0303 69.1964 25.09 69.047C25.1496 68.8976 25.2372 68.7618 25.3477 68.6474C25.4582 68.5331 25.5894 68.4423 25.7339 68.3804C25.8783 68.3185 26.0332 68.2866 26.1896 68.2866Z" fill="#56B3B4"/>
<path d="M26.1896 38.7622H30.9521C31.2676 38.7622 31.5702 38.8917 31.7932 39.1223C32.0163 39.3528 32.1417 39.6655 32.1417 39.9915C32.1419 40.1531 32.1114 40.3132 32.0517 40.4626C31.9921 40.612 31.9045 40.7477 31.794 40.8621C31.6835 40.9765 31.5523 41.0672 31.4078 41.1292C31.2633 41.1911 31.1085 41.2229 30.9521 41.2229H26.1896C25.8741 41.2229 25.5715 41.0934 25.3484 40.8629C25.1253 40.6324 25 40.3197 25 39.9936C24.9997 39.832 25.0303 39.672 25.09 39.5226C25.1496 39.3732 25.2372 39.2374 25.3477 39.123C25.4582 39.0086 25.5894 38.9179 25.7339 38.856C25.8783 38.7941 26.0332 38.7622 26.1896 38.7622Z" fill="#F7BA3E"/>
<path opacity="0.5" d="M57.1437 68.2866H59.525C59.8405 68.2866 60.1431 68.4161 60.3662 68.6467C60.5892 68.8772 60.7146 69.1899 60.7146 69.5159C60.7146 69.8419 60.5892 70.1546 60.3662 70.3852C60.1431 70.6157 59.8405 70.7452 59.525 70.7452H57.1437C56.8283 70.7452 56.5257 70.6157 56.3026 70.3852C56.0795 70.1546 55.9542 69.8419 55.9542 69.5159C55.9542 69.1899 56.0795 68.8772 56.3026 68.6467C56.5257 68.4161 56.8283 68.2866 57.1437 68.2866Z" fill="#4D616E"/>
<path opacity="0.5" d="M42.8563 68.2866H52.3792C52.6947 68.2866 52.9972 68.4161 53.2203 68.6467C53.4434 68.8772 53.5688 69.1899 53.5688 69.5159C53.5688 69.8419 53.4434 70.1546 53.2203 70.3852C52.9972 70.6157 52.6947 70.7452 52.3792 70.7452H42.8563C42.5411 70.7452 42.2389 70.616 42.0158 70.3859C41.7928 70.1558 41.6672 69.8437 41.6667 69.5181C41.6664 69.3565 41.697 69.1964 41.7566 69.047C41.8163 68.8976 41.9039 68.7618 42.0144 68.6474C42.1248 68.5331 42.2561 68.4423 42.4005 68.3804C42.545 68.3185 42.6999 68.2866 42.8563 68.2866Z" fill="#4D616E"/>
<path opacity="0.5" d="M64.2854 68.2866H73.8083C74.1238 68.2866 74.4264 68.4161 74.6495 68.6467C74.8726 68.8772 74.9979 69.1899 74.9979 69.5159C74.9979 69.8419 74.8726 70.1546 74.6495 70.3852C74.4264 70.6157 74.1238 70.7452 73.8083 70.7452H64.2854C63.9699 70.7452 63.6673 70.6157 63.4442 70.3852C63.2212 70.1546 63.0958 69.8419 63.0958 69.5159C63.0958 69.1899 63.2212 68.8772 63.4442 68.6467C63.6673 68.4161 63.9699 68.2866 64.2854 68.2866Z" fill="#4D616E"/>
<path d="M45.2375 48.6052H64.2854C64.6009 48.6052 64.9035 48.7347 65.1266 48.9653C65.3497 49.1958 65.475 49.5085 65.475 49.8345C65.475 50.1605 65.3497 50.4732 65.1266 50.7038C64.9035 50.9343 64.6009 51.0638 64.2854 51.0638H45.2375C44.922 51.0638 44.6194 50.9343 44.3963 50.7038C44.1732 50.4732 44.0479 50.1605 44.0479 49.8345C44.0479 49.5085 44.1732 49.1958 44.3963 48.9653C44.6194 48.7347 44.922 48.6052 45.2375 48.6052Z" fill="#56B3B4"/>
<path d="M33.3334 48.6052H40.4771C40.7926 48.6052 41.0952 48.7347 41.3183 48.9653C41.5414 49.1958 41.6667 49.5085 41.6667 49.8345C41.6667 50.1605 41.5414 50.4732 41.3183 50.7038C41.0952 50.9343 40.7926 51.0638 40.4771 51.0638H33.3334C33.0179 51.0638 32.7153 50.9343 32.4922 50.7038C32.2691 50.4732 32.1438 50.1605 32.1438 49.8345C32.1438 49.5085 32.2691 49.1958 32.4922 48.9653C32.7153 48.7347 33.0179 48.6052 33.3334 48.6052Z" fill="#F7BA3E"/>
<path d="M26.1896 48.6052H28.5708C28.7272 48.6049 28.8821 48.6365 29.0267 48.6982C29.1713 48.7598 29.3027 48.8503 29.4133 48.9645C29.524 49.0787 29.6118 49.2143 29.6717 49.3636C29.7317 49.5129 29.7625 49.6729 29.7625 49.8345C29.7625 50.1605 29.6372 50.4732 29.4141 50.7038C29.191 50.9343 28.8884 51.0638 28.5729 51.0638H26.1896C25.8741 51.0638 25.5715 50.9343 25.3484 50.7038C25.1253 50.4732 25 50.1605 25 49.8345C25 49.5085 25.1253 49.1958 25.3484 48.9653C25.5715 48.7347 25.8741 48.6052 26.1896 48.6052Z" fill="#EA5E5E"/>
<path d="M47.6187 33.8408H57.1417C57.2982 33.8405 57.4533 33.8722 57.598 33.934C57.7427 33.9958 57.8742 34.0865 57.9849 34.2009C58.0956 34.3153 58.1834 34.4511 58.2432 34.6007C58.303 34.7502 58.3336 34.9105 58.3333 35.0723C58.3333 35.3983 58.208 35.711 57.9849 35.9415C57.7618 36.172 57.4592 36.3016 57.1437 36.3016H47.6187C47.3032 36.3016 47.0007 36.172 46.7776 35.9415C46.5545 35.711 46.4292 35.3983 46.4292 35.0723C46.4289 34.9107 46.4594 34.7506 46.5191 34.6012C46.5788 34.4518 46.6663 34.316 46.7768 34.2016C46.8873 34.0873 47.0186 33.9965 47.163 33.9346C47.3075 33.8727 47.4623 33.8408 47.6187 33.8408Z" fill="#BF85BF"/>
<path d="M26.1896 33.8408H42.8562C43.1717 33.8408 43.4743 33.9703 43.6974 34.2009C43.9205 34.4314 44.0458 34.7441 44.0458 35.0701C44.0458 35.3961 43.9205 35.7088 43.6974 35.9393C43.4743 36.1699 43.1717 36.2994 42.8562 36.2994H26.1896C25.8744 36.2994 25.5722 36.1702 25.3492 35.9401C25.1261 35.71 25.0006 35.3979 25 35.0723C24.9997 34.9106 25.0303 34.7506 25.09 34.6012C25.1496 34.4518 25.2372 34.316 25.3477 34.2016C25.4582 34.0873 25.5894 33.9965 25.7339 33.9346C25.8783 33.8727 26.0332 33.8408 26.1896 33.8408Z" fill="#56B3B4"/>
<path d="M33.3334 58.446H54.7625C54.9187 58.446 55.0734 58.4778 55.2177 58.5396C55.3621 58.6014 55.4932 58.6919 55.6037 58.8061C55.7141 58.9202 55.8018 59.0558 55.8615 59.2049C55.9213 59.354 55.9521 59.5139 55.9521 59.6753C55.9521 60.0014 55.8268 60.314 55.6037 60.5446C55.3806 60.7751 55.078 60.9046 54.7625 60.9046H33.3334C33.0179 60.9046 32.7153 60.7751 32.4922 60.5446C32.2691 60.314 32.1438 60.0014 32.1438 59.6753C32.1438 59.5139 32.1745 59.354 32.2343 59.2049C32.2941 59.0558 32.3817 58.9202 32.4922 58.8061C32.6027 58.6919 32.7338 58.6014 32.8781 58.5396C33.0224 58.4778 33.1771 58.446 33.3334 58.446Z" fill="#F7BA3E"/>
<path d="M26.1896 58.446H28.5708C28.7271 58.446 28.8817 58.4778 29.0261 58.5396C29.1704 58.6014 29.3015 58.6919 29.412 58.8061C29.5225 58.9202 29.6101 59.0558 29.6699 59.2049C29.7296 59.354 29.7604 59.5139 29.7604 59.6753C29.7604 60.0014 29.6351 60.314 29.412 60.5446C29.1889 60.7751 28.8863 60.9046 28.5708 60.9046H26.1896C25.8741 60.9046 25.5715 60.7751 25.3484 60.5446C25.1253 60.314 25 60.0014 25 59.6753C25 59.5139 25.0308 59.354 25.0906 59.2049C25.1503 59.0558 25.238 58.9202 25.3484 58.8061C25.4589 58.6919 25.59 58.6014 25.7343 58.5396C25.8787 58.4778 26.0334 58.446 26.1896 58.446Z" fill="#BF85BF"/>
<path d="M54.7625 38.7622H66.6666C66.9821 38.7622 67.2847 38.8917 67.5078 39.1223C67.7309 39.3528 67.8562 39.6655 67.8562 39.9915C67.8565 40.1531 67.8259 40.3132 67.7663 40.4626C67.7066 40.612 67.619 40.7477 67.5085 40.8621C67.3981 40.9765 67.2668 41.0672 67.1224 41.1292C66.9779 41.1911 66.823 41.2229 66.6666 41.2229H54.7625C54.447 41.2229 54.1444 41.0934 53.9213 40.8629C53.6982 40.6324 53.5729 40.3197 53.5729 39.9936C53.5726 39.832 53.6032 39.672 53.6628 39.5226C53.7225 39.3732 53.8101 39.2374 53.9206 39.123C54.0311 39.0086 54.1623 38.9179 54.3068 38.856C54.4512 38.7941 54.6061 38.7622 54.7625 38.7622Z" fill="#EA5E5E"/>
<path d="M54.7625 43.6836H66.6666C66.9821 43.6836 67.2847 43.8131 67.5078 44.0436C67.7309 44.2742 67.8562 44.5869 67.8562 44.9129C67.8562 45.2389 67.7309 45.5516 67.5078 45.7821C67.2847 46.0127 66.9821 46.1422 66.6666 46.1422H54.7625C54.447 46.1422 54.1444 46.0127 53.9213 45.7821C53.6982 45.5516 53.5729 45.2389 53.5729 44.9129C53.5729 44.5869 53.6982 44.2742 53.9213 44.0436C54.1444 43.8131 54.447 43.6836 54.7625 43.6836Z" fill="#F7BA3E"/>
<path d="M26.1896 24H54.7625C55.078 24 55.3806 24.1295 55.6037 24.3601C55.8267 24.5906 55.9521 24.9033 55.9521 25.2293C55.9521 25.5553 55.8267 25.868 55.6037 26.0985C55.3806 26.3291 55.078 26.4586 54.7625 26.4586H26.1896C25.8741 26.4586 25.5715 26.3291 25.3484 26.0985C25.1253 25.868 25 25.5553 25 25.2293C25 24.9033 25.1253 24.5906 25.3484 24.3601C25.5715 24.1295 25.8741 24 26.1896 24Z" fill="#56B3B4"/>
<path opacity="0.5" d="M59.5229 24H73.8083C73.9647 23.9997 74.1196 24.0313 74.2642 24.093C74.4088 24.1546 74.5402 24.2451 74.6509 24.3593C74.7615 24.4735 74.8493 24.6091 74.9093 24.7584C74.9692 24.9077 75 25.0677 75 25.2293C75 25.5553 74.8747 25.868 74.6516 26.0985C74.4285 26.3291 74.1259 26.4586 73.8104 26.4586H59.5229C59.2074 26.4586 58.9049 26.3291 58.6818 26.0985C58.4587 25.868 58.3333 25.5553 58.3333 25.2293C58.3333 24.9033 58.4587 24.5906 58.6818 24.3601C58.9049 24.1295 59.2074 24 59.5229 24Z" fill="#4D616E"/>
<path opacity="0.5" d="M59.5229 58.446H64.2854C64.4416 58.446 64.5963 58.4778 64.7407 58.5396C64.885 58.6014 65.0161 58.6919 65.1266 58.8061C65.237 58.9202 65.3247 59.0558 65.3845 59.2049C65.4442 59.354 65.475 59.5139 65.475 59.6753C65.475 60.0014 65.3497 60.314 65.1266 60.5446C64.9035 60.7751 64.6009 60.9046 64.2854 60.9046H59.5229C59.3667 60.9046 59.212 60.8728 59.0677 60.8111C58.9234 60.7493 58.7922 60.6587 58.6818 60.5446C58.5713 60.4304 58.4837 60.2949 58.4239 60.1458C58.3641 59.9966 58.3333 59.8368 58.3333 59.6753C58.3333 59.5139 58.3641 59.354 58.4239 59.2049C58.4837 59.0558 58.5713 58.9202 58.6818 58.8061C58.7922 58.6919 58.9234 58.6014 59.0677 58.5396C59.212 58.4778 59.3667 58.446 59.5229 58.446Z" fill="#4D616E"/>
<path opacity="0.5" d="M69.0479 58.446H73.8104C73.9666 58.446 74.1213 58.4778 74.2656 58.5396C74.41 58.6014 74.5411 58.6919 74.6516 58.8061C74.762 58.9202 74.8497 59.0558 74.9094 59.2049C74.9692 59.354 75 59.5139 75 59.6753C75 59.8368 74.9692 59.9966 74.9094 60.1458C74.8497 60.2949 74.762 60.4304 74.6516 60.5446C74.5411 60.6587 74.41 60.7493 74.2656 60.8111C74.1213 60.8728 73.9666 60.9046 73.8104 60.9046H69.0479C68.7324 60.9046 68.4298 60.7751 68.2067 60.5446C67.9837 60.314 67.8583 60.0014 67.8583 59.6753C67.8583 59.5139 67.8891 59.354 67.9489 59.2049C68.0087 59.0558 68.0963 58.9202 68.2067 58.8061C68.3172 58.6919 68.4483 58.6014 68.5927 58.5396C68.737 58.4778 68.8917 58.446 69.0479 58.446Z" fill="#4D616E"/>
<path opacity="0.5" d="M66.6667 53.5244H73.8104C74.1259 53.5244 74.4285 53.6539 74.6516 53.8845C74.8747 54.115 75 54.4277 75 54.7537C75 55.0797 74.8747 55.3924 74.6516 55.6229C74.4285 55.8535 74.1259 55.983 73.8104 55.983H66.6667C66.3512 55.983 66.0486 55.8535 65.8255 55.6229C65.6024 55.3924 65.4771 55.0797 65.4771 54.7537C65.4771 54.4277 65.6024 54.115 65.8255 53.8845C66.0486 53.6539 66.3512 53.5244 66.6667 53.5244Z" fill="#4D616E"/>
<path opacity="0.5" d="M66.6667 28.9219H73.8104C74.1259 28.9219 74.4285 29.0514 74.6516 29.2819C74.8747 29.5125 75 29.8251 75 30.1512C75 30.4772 74.8747 30.7899 74.6516 31.0204C74.4285 31.2509 74.1259 31.3805 73.8104 31.3805H66.6667C66.3512 31.3805 66.0486 31.2509 65.8255 31.0204C65.6024 30.7899 65.4771 30.4772 65.4771 30.1512C65.4771 29.8251 65.6024 29.5125 65.8255 29.2819C66.0486 29.0514 66.3512 28.9219 66.6667 28.9219Z" fill="#4D616E"/>
<path opacity="0.5" d="M69.0479 48.6052H73.8104C73.9666 48.6052 74.1213 48.637 74.2656 48.6988C74.41 48.7606 74.5411 48.8511 74.6516 48.9653C74.762 49.0794 74.8496 49.2149 74.9094 49.3641C74.9692 49.5132 75 49.6731 75 49.8345C75 49.9959 74.9692 50.1558 74.9094 50.3049C74.8496 50.4541 74.762 50.5896 74.6516 50.7038C74.5411 50.8179 74.41 50.9085 74.2656 50.9702C74.1213 51.032 73.9666 51.0638 73.8104 51.0638H69.0479C68.8915 51.0641 68.7366 51.0325 68.592 50.9709C68.4475 50.9092 68.3161 50.8187 68.2054 50.7045C68.0947 50.5903 68.0069 50.4547 67.947 50.3054C67.8871 50.1562 67.8562 49.9961 67.8562 49.8345C67.8562 49.6729 67.8871 49.5129 67.947 49.3636C68.0069 49.2143 68.0947 49.0787 68.2054 48.9645C68.3161 48.8503 68.4475 48.7598 68.592 48.6982C68.7366 48.6365 68.8915 48.6049 69.0479 48.6052Z" fill="#4D616E"/>
<path opacity="0.5" d="M69.0479 33.8408H73.8104C73.9668 33.8408 74.1217 33.8727 74.2661 33.9346C74.4106 33.9965 74.5418 34.0873 74.6523 34.2016C74.7628 34.316 74.8504 34.4518 74.91 34.6012C74.9697 34.7506 75.0003 34.9106 75 35.0723C75 35.2337 74.9692 35.3935 74.9094 35.5427C74.8497 35.6918 74.762 35.8274 74.6516 35.9415C74.5411 36.0557 74.41 36.1462 74.2656 36.208C74.1213 36.2698 73.9666 36.3016 73.8104 36.3016H69.0479C68.7324 36.3016 68.4298 36.172 68.2067 35.9415C67.9837 35.711 67.8583 35.3983 67.8583 35.0723C67.8581 34.9106 67.8886 34.7506 67.9483 34.6012C68.0079 34.4518 68.0955 34.316 68.206 34.2016C68.3165 34.0873 68.4477 33.9965 68.5922 33.9346C68.7367 33.8727 68.8915 33.8408 69.0479 33.8408Z" fill="#4D616E"/>
<path opacity="0.5" d="M71.4291 38.7622H73.8104C73.9666 38.7622 74.1213 38.794 74.2656 38.8558C74.41 38.9176 74.5411 39.0081 74.6516 39.1223C74.762 39.2364 74.8496 39.3719 74.9094 39.5211C74.9692 39.6702 75 39.8301 75 39.9915C75 40.1529 74.9692 40.3128 74.9094 40.4619C74.8496 40.6111 74.762 40.7466 74.6516 40.8607C74.5411 40.9749 74.41 41.0654 74.2656 41.1272C74.1213 41.189 73.9666 41.2208 73.8104 41.2208H71.4291C71.1136 41.2208 70.8111 41.0913 70.588 40.8607C70.3649 40.6302 70.2396 40.3175 70.2396 39.9915C70.2396 39.6655 70.3649 39.3528 70.588 39.1223C70.8111 38.8917 71.1136 38.7622 71.4291 38.7622Z" fill="#4D616E"/>
<path opacity="0.5" d="M71.4291 43.6836H73.8104C73.9666 43.6836 74.1213 43.7154 74.2656 43.7772C74.41 43.8389 74.5411 43.9295 74.6516 44.0436C74.762 44.1578 74.8496 44.2933 74.9094 44.4425C74.9692 44.5916 75 44.7515 75 44.9129C75 45.0743 74.9692 45.2342 74.9094 45.3833C74.8496 45.5325 74.762 45.668 74.6516 45.7821C74.5411 45.8963 74.41 45.9868 74.2656 46.0486C74.1213 46.1104 73.9666 46.1422 73.8104 46.1422H71.4291C71.1136 46.1422 70.8111 46.0127 70.588 45.7821C70.3649 45.5516 70.2396 45.2389 70.2396 44.9129C70.2396 44.5869 70.3649 44.2742 70.588 44.0436C70.8111 43.8131 71.1136 43.6836 71.4291 43.6836Z" fill="#4D616E"/>
<path opacity="0.5" d="M52.3812 63.3674H73.8104C73.9666 63.3674 74.1213 63.3992 74.2656 63.461C74.41 63.5228 74.5411 63.6133 74.6516 63.7275C74.762 63.8416 74.8497 63.9771 74.9094 64.1263C74.9692 64.2754 75 64.4353 75 64.5967C75 64.7582 74.9692 64.918 74.9094 65.0672C74.8497 65.2163 74.762 65.3518 74.6516 65.466C74.5411 65.5801 74.41 65.6707 74.2656 65.7324C74.1213 65.7942 73.9666 65.826 73.8104 65.826H52.3812C52.0657 65.826 51.7632 65.6965 51.5401 65.466C51.317 65.2354 51.1917 64.9228 51.1917 64.5967C51.1917 64.2707 51.317 63.958 51.5401 63.7275C51.7632 63.4969 52.0657 63.3674 52.3812 63.3674Z" fill="#4D616E"/>
<path opacity="0.5" d="M42.8563 63.3674H47.6188C47.9343 63.3674 48.2368 63.4969 48.4599 63.7275C48.683 63.958 48.8083 64.2707 48.8083 64.5967C48.8083 64.9228 48.683 65.2354 48.4599 65.466C48.2368 65.6965 47.9343 65.826 47.6188 65.826H42.8563C42.5408 65.826 42.2382 65.6965 42.0151 65.466C41.792 65.2354 41.6667 64.9228 41.6667 64.5967C41.6667 64.2707 41.792 63.958 42.0151 63.7275C42.2382 63.4969 42.5408 63.3674 42.8563 63.3674Z" fill="#4D616E"/>
<path opacity="0.5" d="M61.9042 73.2085H73.8083C74.1238 73.2085 74.4264 73.338 74.6495 73.5685C74.8726 73.7991 74.9979 74.1118 74.9979 74.4378C74.9979 74.5992 74.9671 74.7591 74.9074 74.9082C74.8476 75.0574 74.7599 75.1929 74.6495 75.307C74.539 75.4212 74.4079 75.5117 74.2636 75.5735C74.1192 75.6353 73.9645 75.6671 73.8083 75.6671H61.9042C61.7479 75.6671 61.5932 75.6353 61.4489 75.5735C61.3046 75.5117 61.1735 75.4212 61.063 75.307C60.9525 75.1929 60.8649 75.0574 60.8051 74.9082C60.7453 74.7591 60.7146 74.5992 60.7146 74.4378C60.7146 74.1118 60.8399 73.7991 61.063 73.5685C61.2861 73.338 61.5887 73.2085 61.9042 73.2085Z" fill="#4D616E"/>
<path opacity="0.5" d="M42.8563 73.2085H57.1417C57.4572 73.2085 57.7597 73.338 57.9828 73.5685C58.2059 73.7991 58.3313 74.1118 58.3313 74.4378C58.3313 74.5992 58.3005 74.7591 58.2407 74.9082C58.1809 75.0574 58.0933 75.1929 57.9828 75.307C57.8724 75.4212 57.7412 75.5117 57.5969 75.5735C57.4526 75.6353 57.2979 75.6671 57.1417 75.6671H42.8563C42.5411 75.6671 42.2389 75.5379 42.0158 75.3078C41.7928 75.0777 41.6672 74.7656 41.6667 74.4399C41.6664 74.2783 41.697 74.1182 41.7566 73.9688C41.8163 73.8195 41.9039 73.6837 42.0144 73.5693C42.1248 73.4549 42.2561 73.3642 42.4005 73.3023C42.545 73.2404 42.6999 73.2085 42.8563 73.2085Z" fill="#4D616E"/>
<path opacity="0.5" d="M42.8563 38.7622H50C50.3155 38.7622 50.6181 38.8917 50.8412 39.1223C51.0643 39.3528 51.1896 39.6655 51.1896 39.9915C51.1899 40.1531 51.1593 40.3132 51.0996 40.4626C51.04 40.612 50.9524 40.7477 50.8419 40.8621C50.7314 40.9765 50.6002 41.0672 50.4557 41.1292C50.3113 41.1911 50.1564 41.2229 50 41.2229H42.8563C42.5408 41.2229 42.2382 41.0934 42.0151 40.8629C41.792 40.6324 41.6667 40.3197 41.6667 39.9936C41.6664 39.832 41.697 39.672 41.7566 39.5226C41.8163 39.3732 41.9039 39.2374 42.0144 39.123C42.1248 39.0086 42.2561 38.9179 42.4005 38.856C42.545 38.7941 42.6999 38.7622 42.8563 38.7622Z" fill="#4D616E"/>
<path opacity="0.5" d="M42.8563 43.6836H50C50.3155 43.6836 50.6181 43.8131 50.8412 44.0436C51.0643 44.2742 51.1896 44.5869 51.1896 44.9129C51.1896 45.2389 51.0643 45.5516 50.8412 45.7821C50.6181 46.0127 50.3155 46.1422 50 46.1422H42.8563C42.5408 46.1422 42.2382 46.0127 42.0151 45.7821C41.792 45.5516 41.6667 45.2389 41.6667 44.9129C41.6667 44.5869 41.792 44.2742 42.0151 44.0436C42.2382 43.8131 42.5408 43.6836 42.8563 43.6836Z" fill="#4D616E"/>
</g>
<defs>
<clipPath id="clip0_96_38">
<rect width="100" height="100" fill="white"/>
</clipPath>
</defs>
</svg>
