<svg width="100" height="100" viewBox="0 0 100 100" fill="none" xmlns="http://www.w3.org/2000/svg">
<g clip-path="url(#clip0_96_36)">
<rect width="100" height="100" fill="white"/>
<rect width="100" height="100" fill="#F26623"/>
<path d="M32.04 48.7244V25.3501H47.9307V29.9382H37.5483V34.7318H47.1184V39.3313H37.5483V44.1363H47.9307V48.7244H32.04Z" fill="white"/>
<path d="M63.699 32.3578C63.6249 31.5208 63.2947 30.8703 62.7087 30.4061C62.13 29.9344 61.3028 29.6985 60.2271 29.6985C59.5149 29.6985 58.9214 29.7936 58.4466 29.9839C57.9719 30.1741 57.6158 30.4366 57.3784 30.7714C57.141 31.0986 57.0186 31.4752 57.0111 31.9013C56.9963 32.2513 57.0631 32.5594 57.2114 32.8258C57.3672 33.0921 57.5898 33.3279 57.8791 33.5334C58.1759 33.7312 58.532 33.9062 58.9474 34.0584C59.3628 34.2106 59.8302 34.3437 60.3495 34.4578L62.308 34.9144C63.4357 35.1655 64.4298 35.5003 65.2903 35.9187C66.1583 36.3372 66.8854 36.8356 67.4714 37.4139C68.0649 37.9921 68.5137 38.6579 68.8179 39.4112C69.1221 40.1645 69.2779 41.009 69.2853 41.9449C69.2779 43.421 68.9144 44.6879 68.1947 45.7455C67.4751 46.8031 66.4402 47.6135 65.09 48.1765C63.7473 48.7396 62.1263 49.0211 60.2271 49.0211C58.3205 49.0211 56.6587 48.7282 55.2418 48.1423C53.8248 47.5564 52.7232 46.6662 51.9368 45.4716C51.1504 44.277 50.7461 42.7667 50.7238 40.9406H55.9985C56.043 41.6938 56.2396 42.3216 56.5883 42.8237C56.9369 43.3259 57.4155 43.7064 58.0238 43.9651C58.6395 44.2238 59.3517 44.3531 60.1604 44.3531C60.9022 44.3531 61.5328 44.2504 62.0521 44.045C62.5788 43.8395 62.9831 43.5542 63.2651 43.189C63.547 42.8237 63.6916 42.4053 63.699 41.9335C63.6916 41.4922 63.5581 41.1156 63.2984 40.8036C63.0388 40.484 62.6382 40.2101 62.0966 39.9818C61.5625 39.746 60.88 39.5291 60.0491 39.3313L57.6677 38.7606C55.6943 38.2965 54.1401 37.547 53.0051 36.5122C51.87 35.4698 51.3062 34.0622 51.3136 32.2893C51.3062 30.8437 51.6845 29.5768 52.4487 28.4887C53.2128 27.4007 54.2699 26.5523 55.6201 25.9436C56.9703 25.3349 58.5097 25.0305 60.2382 25.0305C62.0039 25.0305 63.5358 25.3387 64.8341 25.955C66.1398 26.5637 67.1524 27.4197 67.872 28.523C68.5916 29.6262 68.9589 30.9045 68.9737 32.3578H63.699Z" fill="white"/>
<path d="M32.8542 74.8378V59.255H35.6065V72.4715H42.2981V74.8378H32.8542Z" fill="white"/>
<path d="M44.5682 74.8378V63.1507H47.2538V74.8378H44.5682ZM45.9184 61.492C45.4931 61.492 45.1271 61.3474 44.8204 61.0583C44.5138 60.7641 44.3605 60.4115 44.3605 60.0006C44.3605 59.5847 44.5138 59.2322 44.8204 58.943C45.1271 58.6488 45.4931 58.5017 45.9184 58.5017C46.3487 58.5017 46.7147 58.6488 47.0164 58.943C47.323 59.2322 47.4763 59.5847 47.4763 60.0006C47.4763 60.4115 47.323 60.7641 47.0164 61.0583C46.7147 61.3474 46.3487 61.492 45.9184 61.492Z" fill="white"/>
<path d="M52.7009 67.9899V74.8378H50.0154V63.1507H52.5822V65.1366H52.7157C52.9779 64.4822 53.3958 63.9623 53.9695 63.5768C54.5481 63.1913 55.2628 62.9985 56.1135 62.9985C56.8999 62.9985 57.5848 63.171 58.1684 63.5159C58.757 63.8608 59.212 64.3605 59.5335 65.0149C59.8599 65.6692 60.0206 66.4631 60.0157 67.3964V74.8378H57.3301V67.8225C57.3301 67.0413 57.1323 66.4301 56.7366 65.9888C56.3459 65.5475 55.8044 65.3268 55.112 65.3268C54.6421 65.3268 54.2242 65.4333 53.8582 65.6464C53.4972 65.8544 53.2128 66.1562 53.0051 66.5518C52.8023 66.9475 52.7009 67.4268 52.7009 67.9899Z" fill="white"/>
<path d="M68.4358 63.1507V65.2812H61.8852V63.1507H68.4358ZM63.5024 60.3506H66.188V71.3226C66.188 71.6929 66.2424 71.9769 66.3512 72.1748C66.465 72.3675 66.6133 72.4994 66.7963 72.5704C66.9793 72.6414 67.1821 72.6769 67.4047 72.6769C67.5728 72.6769 67.7261 72.6643 67.8646 72.6389C68.008 72.6135 68.1168 72.5907 68.191 72.5704L68.6436 74.7237C68.5001 74.7744 68.2949 74.8302 68.0278 74.8911C67.7657 74.952 67.4442 74.9875 67.0634 74.9976C66.3908 75.0179 65.7849 74.9139 65.2458 74.6857C64.7067 74.4523 64.2789 74.0922 63.9624 73.6052C63.6508 73.1182 63.4975 72.5095 63.5024 71.7791V60.3506Z" fill="white"/>
<path d="M10 50.0349V47.6172C12.1165 47.6172 13.5929 47.1623 14.4294 46.2524C15.2785 45.3425 15.7031 43.8217 15.7031 41.6899V35.4507C15.7031 33.6569 15.8678 32.1036 16.1974 30.7908C16.5395 29.4779 17.0908 28.3926 17.8512 27.5347C18.6117 26.6768 19.6255 26.0399 20.8929 25.6239C22.1602 25.208 23.7254 25 25.5884 25V28.8215C24.1183 28.8215 22.9587 29.0555 22.1095 29.5234C21.2731 29.9914 20.6774 30.7193 20.3226 31.7072C19.9804 32.6821 19.8093 33.9299 19.8093 35.4507V43.2498C19.8093 44.2636 19.6762 45.1865 19.4101 46.0184C19.1566 46.8503 18.6814 47.5652 17.9843 48.1631C17.2873 48.7611 16.2924 49.2225 14.9997 49.5475C13.7197 49.8724 12.0531 50.0349 10 50.0349ZM25.5884 74.9138C23.7254 74.9138 22.1602 74.7059 20.8929 74.2899C19.6255 73.874 18.6117 73.2371 17.8512 72.3792C17.0908 71.5213 16.5395 70.4359 16.1974 69.1231C15.8678 67.8102 15.7031 66.2569 15.7031 64.4631V58.2239C15.7031 56.0922 15.2785 54.5714 14.4294 53.6615C13.5929 52.7516 12.1165 52.2966 10 52.2966V49.8789C12.0531 49.8789 13.7197 50.0414 14.9997 50.3664C16.2924 50.6913 17.2873 51.1528 17.9843 51.7507C18.6814 52.3486 19.1566 53.0635 19.4101 53.8954C19.6762 54.7273 19.8093 55.6502 19.8093 56.6641V64.4631C19.8093 65.9839 19.9804 67.2318 20.3226 68.2067C20.6774 69.1816 21.2731 69.903 22.1095 70.3709C22.9587 70.8519 24.1183 71.0923 25.5884 71.0923V74.9138ZM10 52.2966V47.6172H14.4864V52.2966H10Z" fill="#FBBE98"/>
<path d="M90 49.8789V52.2966C87.8835 52.2966 86.4007 52.7516 85.5516 53.6615C84.7151 54.5714 84.2969 56.0922 84.2969 58.2239V64.4631C84.2969 66.2569 84.1258 67.8102 83.7836 69.1231C83.4541 70.4359 82.9092 71.5213 82.1488 72.3792C81.3883 73.2371 80.3745 73.874 79.1071 74.2899C77.8398 74.7059 76.2746 74.9138 74.4116 74.9138V71.0923C75.8817 71.0923 77.035 70.8519 77.8714 70.3709C78.7206 69.903 79.3162 69.1816 79.6584 68.2067C80.0133 67.2318 80.1907 65.9839 80.1907 64.4631V56.6641C80.1907 55.6502 80.3174 54.7273 80.5709 53.8954C80.837 53.0635 81.3186 52.3486 82.0157 51.7507C82.7127 51.1528 83.7013 50.6913 84.9813 50.3664C86.274 50.0414 87.9469 49.8789 90 49.8789ZM74.4116 25C76.2746 25 77.8398 25.208 79.1071 25.6239C80.3745 26.0399 81.3883 26.6768 82.1488 27.5347C82.9092 28.3926 83.4541 29.4779 83.7836 30.7908C84.1258 32.1036 84.2969 33.6569 84.2969 35.4507V41.6899C84.2969 43.8217 84.7151 45.3425 85.5516 46.2524C86.4007 47.1623 87.8835 47.6172 90 47.6172V50.0349C87.9469 50.0349 86.274 49.8724 84.9813 49.5475C83.7013 49.2225 82.7127 48.7611 82.0157 48.1631C81.3186 47.5652 80.837 46.8503 80.5709 46.0184C80.3174 45.1865 80.1907 44.2636 80.1907 43.2498V35.4507C80.1907 33.9299 80.0133 32.6821 79.6584 31.7072C79.3162 30.7193 78.7206 29.9914 77.8714 29.5234C77.035 29.0555 75.8817 28.8215 74.4116 28.8215V25ZM90 47.6172V52.2966H85.5136V47.6172H90Z" fill="#FBBE98"/>
</g>
<defs>
<clipPath id="clip0_96_36">
<rect width="100" height="100" fill="white"/>
</clipPath>
</defs>
</svg>
