<svg width="100" height="100" viewBox="0 0 100 100" fill="none" xmlns="http://www.w3.org/2000/svg">
<g clip-path="url(#clip0_96_40)">
<rect width="100" height="100" fill="white"/>
<rect width="100" height="100" fill="#7DB75A"/>
<path d="M46.4574 63.1625C46.1695 62.8746 45.779 62.7129 45.3718 62.7129C44.9647 62.7129 44.5742 62.8746 44.2863 63.1625C43.9984 63.4504 43.8366 63.8409 43.8366 64.2481C43.8366 64.6552 43.9984 65.0457 44.2863 65.3336L48.8731 69.9204C49.0159 70.0621 49.1854 70.1742 49.3716 70.2503C49.5579 70.3264 49.7574 70.3649 49.9586 70.3638C50.1679 70.3571 50.3736 70.3076 50.563 70.2181C50.7524 70.1287 50.9213 70.0014 51.0594 69.8439L61.7619 57.6125C62.0091 57.3057 62.1282 56.9153 62.0946 56.5228C62.0609 56.1303 61.877 55.7659 61.5813 55.5057C61.2855 55.2454 60.9007 55.1093 60.5071 55.1259C60.1135 55.1424 59.7415 55.3102 59.4685 55.5943L49.9586 66.6026L46.4574 63.1625Z" fill="white"/>
<path d="M63.719 62.7193C63.3135 62.7193 62.9246 62.8804 62.6379 63.1672C62.3512 63.4539 62.1901 63.8428 62.1901 64.2483C62.1901 67.4923 60.9014 70.6034 58.6076 72.8972C56.3137 75.191 53.2026 76.4797 49.9587 76.4797C47.5431 76.4786 45.1819 75.7623 43.1729 74.4211C41.1639 73.0798 39.597 71.1738 38.6698 68.9433C37.7426 66.7127 37.4966 64.2576 37.9628 61.8874C38.429 59.5173 39.5866 57.3383 41.2896 55.6251C42.4221 54.4775 43.7721 53.5672 45.2606 52.9477C46.7492 52.3281 48.3463 52.0117 49.9587 52.0168C50.9363 52.023 51.9104 52.1358 52.8636 52.3532C53.0631 52.4149 53.2731 52.4351 53.4807 52.4125C53.6882 52.39 53.889 52.3251 54.0705 52.222C54.2521 52.1189 54.4106 51.9796 54.5363 51.8129C54.662 51.6462 54.7522 51.4555 54.8014 51.2526C54.8505 51.0496 54.8576 50.8388 54.8222 50.633C54.7867 50.4272 54.7095 50.2309 54.5953 50.0561C54.481 49.8813 54.3322 49.7318 54.158 49.6167C53.9838 49.5017 53.7878 49.4235 53.5822 49.3871C52.3945 49.1077 51.1788 48.964 49.9587 48.959C46.938 48.9747 43.9897 49.8848 41.4858 51.5745C38.9819 53.2641 37.0346 55.6576 35.8896 58.4529C34.7447 61.2482 34.4534 64.32 35.0526 67.2807C35.6517 70.2414 37.1144 72.9582 39.2561 75.0884C42.0949 77.9284 45.9432 79.5282 49.9587 79.5376C54.0136 79.5376 57.9025 77.9267 60.7698 75.0594C63.6371 72.1921 65.2479 68.3032 65.2479 64.2483C65.2479 63.8428 65.0869 63.4539 64.8001 63.1672C64.5134 62.8804 64.1245 62.7193 63.719 62.7193Z" fill="white"/>
<path d="M28.3032 32.8559C28.3032 32.4025 28.1983 32.0201 27.9885 31.7088C27.7855 31.3976 27.5216 31.1336 27.1968 30.9171C26.8719 30.7073 26.5133 30.5314 26.1208 30.3893C25.7351 30.2472 25.3629 30.1186 25.0042 30.0036C24.4832 29.8344 23.952 29.6314 23.4106 29.3945C22.876 29.1509 22.3888 28.8599 21.9489 28.5216C21.5023 28.1765 21.1369 27.7704 20.8526 27.3035C20.5752 26.8298 20.4365 26.2749 20.4365 25.6388C20.4365 25.0027 20.5752 24.4343 20.8526 23.9335C21.1369 23.4328 21.5057 23.0098 21.9591 22.6647C22.4125 22.3196 22.9267 22.059 23.5019 21.8831C24.0771 21.7004 24.6557 21.609 25.2377 21.609C25.8806 21.609 26.4997 21.7173 27.0952 21.9339C27.6907 22.1436 28.2186 22.4414 28.6787 22.8271C29.1389 23.2128 29.5077 23.6797 29.7851 24.2279C30.0626 24.776 30.2081 25.3884 30.2216 26.0651H28.293C28.2389 25.6388 28.134 25.2531 27.9783 24.908C27.8227 24.5561 27.6163 24.2549 27.3592 24.0046C27.102 23.7542 26.7941 23.5613 26.4355 23.426C26.0836 23.2839 25.6843 23.2128 25.2377 23.2128C24.879 23.2128 24.5272 23.2636 24.182 23.3651C23.8437 23.4666 23.5425 23.6188 23.2786 23.8219C23.008 24.0249 22.7914 24.2752 22.629 24.573C22.4734 24.8707 22.3955 25.2159 22.3955 25.6084C22.4023 26.0347 22.5106 26.3967 22.7204 26.6945C22.9301 26.9855 23.1974 27.2324 23.5222 27.4355C23.8403 27.6385 24.1854 27.8076 24.5576 27.943C24.9366 28.0783 25.2918 28.1968 25.6234 28.2983C26.1715 28.4674 26.7197 28.6738 27.2678 28.9174C27.8159 29.1543 28.3167 29.4588 28.7701 29.831C29.2167 30.1761 29.5754 30.5991 29.846 31.0998C30.1235 31.6006 30.2622 32.1792 30.2622 32.8356C30.2622 33.4987 30.1133 34.0773 29.8156 34.5713C29.5246 35.0653 29.1457 35.4747 28.6787 35.7995C28.2118 36.1311 27.684 36.3815 27.0952 36.5507C26.5065 36.7131 25.9178 36.7943 25.329 36.7943C24.6253 36.7943 23.9317 36.6759 23.2482 36.439C22.5715 36.2022 21.9827 35.8604 21.482 35.4138C21.0354 35.0281 20.6801 34.5781 20.4162 34.0638C20.159 33.5427 20.0203 32.9641 20 32.328H21.9185C21.9794 32.7882 22.1046 33.1976 22.294 33.5563C22.4835 33.9081 22.7271 34.2059 23.0249 34.4495C23.3226 34.6999 23.6644 34.8894 24.0501 35.0179C24.4426 35.1397 24.8689 35.2006 25.329 35.2006C25.6945 35.2006 26.0531 35.1567 26.405 35.0687C26.7637 34.9739 27.0817 34.8285 27.3592 34.6322C27.6366 34.4427 27.8633 34.2025 28.0392 33.9115C28.2152 33.6138 28.3032 33.2619 28.3032 32.8559Z" fill="white"/>
<path d="M33.0435 40.8139V25.6084H34.7589L34.8503 26.8061C34.9992 26.6166 35.1616 26.4475 35.3375 26.2986C35.5134 26.143 35.7029 26.011 35.9059 25.9027C36.1902 25.7403 36.5048 25.6185 36.8499 25.5373C37.2018 25.4493 37.5774 25.4053 37.9767 25.4053C38.6804 25.4053 39.303 25.5441 39.8444 25.8215C40.3857 26.099 40.8391 26.4847 41.2045 26.9787C41.57 27.4727 41.8474 28.0648 42.0369 28.755C42.2264 29.4385 42.3211 30.1896 42.3211 31.0085V31.2216C42.3211 32.0066 42.2264 32.7408 42.0369 33.4243C41.8474 34.101 41.57 34.6897 41.2045 35.1905C40.8391 35.6913 40.3857 36.0837 39.8444 36.368C39.3098 36.6522 38.6973 36.7943 38.0071 36.7943C37.5875 36.7943 37.1951 36.7503 36.8296 36.6623C36.471 36.5744 36.1462 36.4492 35.8552 36.2868C35.6792 36.1852 35.5134 36.0736 35.3578 35.9518C35.2022 35.8232 35.0567 35.6845 34.9213 35.5356V40.8139H33.0435ZM40.4432 31.0085C40.4432 30.4739 40.3823 29.9663 40.2605 29.4859C40.1455 28.9986 39.9662 28.5689 39.7226 28.1968C39.4722 27.8313 39.1575 27.5403 38.7785 27.3238C38.3996 27.1073 37.9462 26.999 37.4184 26.999C37.1274 26.999 36.8567 27.0328 36.6063 27.1005C36.3627 27.1682 36.1428 27.2663 35.9465 27.3949C35.73 27.5234 35.5371 27.6825 35.368 27.8719C35.1988 28.0614 35.0499 28.2712 34.9213 28.5013V33.7897C35.0364 33.9927 35.1683 34.1822 35.3172 34.3581C35.4661 34.5341 35.6353 34.683 35.8247 34.8048C36.0413 34.9469 36.2815 35.0585 36.5454 35.1397C36.8161 35.2209 37.1139 35.2615 37.4387 35.2615C37.9597 35.2615 38.4097 35.1533 38.7887 34.9367C39.1677 34.7134 39.4789 34.4157 39.7226 34.0435C39.9662 33.6713 40.1455 33.2416 40.2605 32.7544C40.3823 32.2671 40.4432 31.7562 40.4432 31.2216V31.0085Z" fill="white"/>
<path d="M50.3908 36.7943C49.6194 36.7943 48.9088 36.6623 48.2592 36.3984C47.6163 36.1345 47.0648 35.7657 46.6046 35.292C46.1445 34.8183 45.7858 34.2566 45.5287 33.607C45.2715 32.9574 45.143 32.2502 45.143 31.4855V31.0592C45.143 30.1727 45.2851 29.381 45.5693 28.684C45.8535 27.9802 46.2324 27.3847 46.7061 26.8975C47.1731 26.417 47.7043 26.0482 48.2998 25.7911C48.902 25.5339 49.5178 25.4053 50.1472 25.4053C50.9389 25.4053 51.6292 25.5441 52.2179 25.8215C52.8134 26.0922 53.3074 26.4678 53.6999 26.9482C54.0924 27.4355 54.3834 28.0073 54.5728 28.6637C54.7691 29.3201 54.8672 30.0306 54.8672 30.7953V31.6378H47.0208V31.7088C47.0682 32.2434 47.1731 32.7138 47.3355 33.1198C47.5047 33.5258 47.7347 33.8845 48.0257 34.1957C48.3235 34.5273 48.6821 34.7879 49.1017 34.9773C49.5212 35.1668 49.9848 35.2615 50.4923 35.2615C51.1622 35.2615 51.7577 35.1262 52.2788 34.8555C52.7999 34.5848 53.233 34.2262 53.5781 33.7796L54.7251 34.6728C54.3597 35.2277 53.8115 35.7217 53.0807 36.1548C52.3566 36.5811 51.46 36.7943 50.3908 36.7943ZM50.1472 26.9482C49.7682 26.9482 49.4096 27.0193 49.0712 27.1614C48.7329 27.2967 48.4284 27.4964 48.1577 27.7603C47.887 28.031 47.6569 28.3625 47.4674 28.755C47.2847 29.1408 47.1561 29.5874 47.0817 30.0949H52.9893V30.0036C52.9893 29.6652 52.9251 29.3032 52.7965 28.9174C52.6679 28.525 52.4886 28.1866 52.2585 27.9024C52.0284 27.6182 51.7374 27.3881 51.3856 27.2121C51.0404 27.0362 50.6276 26.9482 50.1472 26.9482Z" fill="white"/>
<path d="M58.3184 21H63.9317V34.9672H67.5148V36.5913H58.3184V34.9672H62.0538V22.6342H58.3184V21Z" fill="white"/>
<path d="M70.8036 21H76.4168V34.9672H80V36.5913H70.8036V34.9672H74.539V22.6342H70.8036V21Z" fill="white"/>
</g>
<defs>
<clipPath id="clip0_96_40">
<rect width="100" height="100" fill="white"/>
</clipPath>
</defs>
</svg>
